<svg xmlns="http://www.w3.org/2000/svg" width="26.304" height="24.275" viewBox="0 0 26.304 24.275"><defs><style>.a{fill:#1e364b;}</style></defs><g transform="translate(0.004)"><path class="a" d="M13.2,0C5.3,0,0,4,0,10.2a10,10,0,0,0,4.7,8.9c.2.1.4.2.4.5-.4,1.5-1,4.3-1,4.3a.367.367,0,0,0,.1.3.187.187,0,0,0,.3,0s4.5-2.7,5.1-3a7.42,7.42,0,0,1,3.5-1c6.2,0,13.2-2.5,13.2-10.1C26.2,4.2,21.5,0,13.2,0ZM7,12.2a1.6,1.6,0,1,1,1.6-1.6h0A1.58,1.58,0,0,1,7,12.2Zm6.1,0a1.6,1.6,0,1,1,1.6-1.6,1.58,1.58,0,0,1-1.6,1.6Zm6.1,0a1.6,1.6,0,1,1,1.6-1.6,1.58,1.58,0,0,1-1.6,1.6Z"/></g></svg>