<svg xmlns="http://www.w3.org/2000/svg" viewBox="0 0 50.39 46"><defs><style>.cls-1{fill:none;stroke:#1e364b;stroke-linecap:round;stroke-linejoin:round;stroke-width:1.5px;}</style></defs><title>グループ化 999</title><g id="レイヤー_2" data-name="レイヤー 2"><g id="_03-main-contents" data-name="03-main-contents"><g id="グループ化_999" data-name="グループ化 999"><path id="パス_92-3" data-name="パス 92-3" class="cls-1" d="M21.44,31.64S12.09,30.37,7,35.33A22.3,22.3,0,0,0,.75,45.25s49.31-.43,48.89,0a22.3,22.3,0,0,0-6.24-9.92C38.31,30.37,29,31.64,29,31.64"/><g id="グループ化_103-3" data-name="グループ化 103-3"><g id="グループ化_102-3" data-name="グループ化 102-3"><path id="パス_93-3" data-name="パス 93-3" class="cls-1" d="M35.89,12.79c-.42-6.65-5.24-12-11-12S14.21,6,13.79,12.65a2.84,2.84,0,0,0-2.41,2.7A2.68,2.68,0,0,0,14.07,18h.28c1.56,5.1,5.67,8.79,10.49,8.79S33.77,23.14,35.33,18h.14a2.68,2.68,0,0,0,2.69-2.69h0A3,3,0,0,0,35.89,12.79Z"/></g></g><path id="パス_94-3" data-name="パス 94-3" class="cls-1" d="M17.61,3.87A17.48,17.48,0,0,0,26,10c5.81,2.13,9.63,1.14,9.63,1.14"/><path id="パス_95-3" data-name="パス 95-3" class="cls-1" d="M21.44,27v4.67a6.6,6.6,0,0,0,3.54,1,6.84,6.84,0,0,0,3.69-1V26.12"/></g></g></g></svg>