<svg xmlns="http://www.w3.org/2000/svg" viewBox="0 0 21.9 19.35"><defs><style>.cls-1,.cls-3{fill:#dfe618;}.cls-1,.cls-2,.cls-4{stroke:#1e364b;stroke-linecap:round;stroke-linejoin:round;stroke-width:1.5px;}.cls-2{fill:#fff;}.cls-4{fill:none;}.cls-5{fill:#f57789;}.cls-6{fill:#1e364b;}</style></defs><title>アセット 5</title><g transform="translate(-34.78, -29.00)"><path id="パス_2614" data-name="パス 2614" class="cls-5" d="M36.41,38.88l9.28,9.44L55,38.88a5.74,5.74,0,0,0,.16-7.94c-2.91-2.91-5.9-2.13-8,0l-1.34,1.41-1.42-1.41c-2.2-2.2-5.19-2.91-8-.08A5.77,5.77,0,0,0,36.41,38.88Z"/><path id="パス_2615" data-name="パス 2615" class="cls-6" d="M36.41,38.88l9.28,9.44L55,38.88a5.74,5.74,0,0,0,.16-7.94c-2.91-2.91-5.9-2.13-8,0l-1.34,1.41-1.42-1.41c-2.2-2.2-5.19-2.91-8-.08A5.77,5.77,0,0,0,36.41,38.88Zm1.34-7.23c1.89-2,3.93-1.19,5.81.7l2.2,2.13,2.2-2.2c1.9-2,3.94-2.68,5.83-.72A4.47,4.47,0,0,1,54,37.88l-.21.21-8,8-8-7.94a4.47,4.47,0,0,1-.21-6.32Z"/></g></svg>