<svg xmlns="http://www.w3.org/2000/svg" xmlns:xlink="http://www.w3.org/1999/xlink" width="56" height="51" viewBox="0 0 56 51"><defs><style>.a{fill:#4cb5d5;}.b{fill:#91d3e5;}.c{fill:#fff;}.d{filter:url(#a);}</style><filter id="a" x="63.289" y="0" width="468.211" height="78" filterUnits="userSpaceOnUse"><feOffset dy="2" input="SourceAlpha"/><feGaussianBlur stdDeviation="3" result="b"/><feFlood flood-opacity="0.161"/><feComposite operator="in" in2="b"/><feComposite in="SourceGraphic"/></filter></defs><g><g><path class="a" d="M24.352,22.564S13.66,21.106,7.828,26.776.7,38.116.7,38.116s56.375-.486,55.889,0c0,0-1.3-5.67-7.128-11.34s-16.524-4.212-16.524-4.212" transform="translate(0 13.451)"/><g transform="translate(12.85 0.7)"><path class="a" d="M36.226,14.47C35.74,6.856,30.232.7,23.59.7S11.44,6.694,10.954,14.308A3.26,3.26,0,0,0,8.2,17.386a3.076,3.076,0,0,0,3.078,3.078H11.6c1.782,5.832,6.48,10.044,11.988,10.044S33.8,26.3,35.578,20.464h.162a3.076,3.076,0,0,0,3.078-3.078A3.469,3.469,0,0,0,36.226,14.47Z" transform="translate(-8.2 -0.7)"/></g><path class="a" d="M12.6,2.9a20.012,20.012,0,0,0,9.558,6.966c6.642,2.43,11.016,1.3,11.016,1.3" transform="translate(7.378 1.364)"/><path class="a" d="M15.3,20.045v7.947a6.093,6.093,0,0,0,4.05,1.686,6.243,6.243,0,0,0,4.212-1.686V18.6" transform="translate(9.052 9.039)"/></g></g></svg>