<svg xmlns="http://www.w3.org/2000/svg" width="20" height="18.432" viewBox="0 0 20 18.432"><defs><style>.a{fill:#1e364b;}</style></defs><g transform="translate(0.031 0.021)"><path class="a" d="M17.39,2.8A9.2,9.2,0,0,0,11.125-.02a1.118,1.118,0,1,0-.094,2.234A6.986,6.986,0,1,1,3.755,9.193c0-.137,0-.269.012-.406L5.1,9.443a.5.5,0,0,0,.445,0A.383.383,0,0,0,5.751,9.1L5.618,3.249a.5.5,0,0,0-.769-.383L.127,6.322A.384.384,0,0,0-.025,6.7a.485.485,0,0,0,.273.352l1.394.687a9.44,9.44,0,0,0-.117,1.457A9.221,9.221,0,1,0,17.39,2.8Z" transform="translate(0 0)"/></g></svg>