<svg xmlns="http://www.w3.org/2000/svg" viewBox="0 0 56.64 49.81"><defs><style>.cls-1{fill:none;stroke:#1e364b;stroke-linecap:round;stroke-linejoin:round;stroke-width:1.5px;}.cls-2{fill:#ebeef1;}.cls-3{fill:#1e364b;}</style></defs><title>アセット 3</title><g id="レイヤー_2" data-name="レイヤー 2"><g id="_-hover" data-name="-hover"><g id="グループ化_274" data-name="グループ化 274"><path id="パス_2593" data-name="パス 2593" class="cls-1" d="M20.44,27.84v4.45a6.27,6.27,0,0,0,3.37,1,6.54,6.54,0,0,0,3.5-1V27"/><path id="パス_2594" data-name="パス 2594" class="cls-1" d="M20.44,32.29s-8.9-1.21-13.76,3.51A21.23,21.23,0,0,0,.75,45.24s46.93-.4,46.52,0a21.23,21.23,0,0,0-5.93-9.44c-4.85-4.72-13.75-3.51-13.75-3.51"/><g id="グループ化_273" data-name="グループ化 273"><g id="グループ化_272" data-name="グループ化 272"><path id="パス_2595" data-name="パス 2595" class="cls-1" d="M34.19,14.36V12.88L14,10.45A8,8,0,0,0,13,14.36a2.51,2.51,0,0,0-2.16,2.56,2.56,2.56,0,0,0,2.56,2.56h.28c1.48,4.86,5.39,8.36,10,8.36s8.5-3.5,10-8.36h.14a2.55,2.55,0,0,0,2.56-2.55h0A2.88,2.88,0,0,0,34.19,14.36Z"/></g></g><path id="パス_2596" data-name="パス 2596" class="cls-1" d="M20.44,27.84v4.45a6.27,6.27,0,0,0,3.37,1,6.54,6.54,0,0,0,3.5-1V27"/><line id="線_268" data-name="線 268" class="cls-1" x1="7.63" y1="9.37" x2="34.19" y2="12.88"/><path id="パス_2597" data-name="パス 2597" class="cls-1" d="M35.41,13c.94-6.74-3.65-11.33-10-12.13s-11.87,2.29-12.81,9"/></g><g id="グループ化_303" data-name="グループ化 303"><path id="パス_2614" data-name="パス 2614" class="cls-2" d="M36.41,40.38l9.28,9.43L55,40.38a5.76,5.76,0,0,0,.16-8c-2.91-2.91-5.9-2.12-8,0l-1.34,1.42-1.42-1.42c-2.2-2.2-5.19-2.91-8-.08A5.79,5.79,0,0,0,36.41,40.38Z"/><path id="パス_2615" data-name="パス 2615" class="cls-3" d="M36.41,40.38l9.28,9.43L55,40.38a5.76,5.76,0,0,0,.16-8c-2.91-2.91-5.9-2.12-8,0l-1.34,1.42-1.42-1.42c-2.2-2.2-5.19-2.91-8-.08A5.79,5.79,0,0,0,36.41,40.38Zm1.34-7.24c1.89-2,3.93-1.18,5.81.71L45.76,36l2.2-2.2c1.9-2,3.94-2.67,5.83-.71A4.47,4.47,0,0,1,54,39.38l-.21.21-8,8-8-7.94a4.47,4.47,0,0,1-.21-6.32Z"/></g></g></g></svg>