<svg xmlns="http://www.w3.org/2000/svg" viewBox="0 0 55.64 48.38"><defs><style>.cls-1{fill:#dfe618;}.cls-1,.cls-2,.cls-4{stroke:#1e364b;stroke-linecap:round;stroke-linejoin:round;stroke-width:1.5px;}.cls-2,.cls-3{fill:#fff;}.cls-4{fill:none;}.cls-5{fill:#f57789;}.cls-6{fill:#1e364b;}</style></defs><title>アセット 6</title><g id="レイヤー_2" data-name="レイヤー 2"><g id="_-Selecteditem" data-name="-Selecteditem"><path class="cls-1" d="M19.24,31.1s-8.37-1.19-12.91,3.35A20.91,20.91,0,0,0,.75,43.37s44.14-.32,43.82,0A20.82,20.82,0,0,0,39,34.45c-4.55-4.54-12.91-3.35-12.91-3.35"/><path class="cls-1" d="M28,24.63a16,16,0,0,0,10-5.05C34.75,16.05,35,10.07,32.62,5.8A9.44,9.44,0,0,0,22.17,1,9.43,9.43,0,0,0,11.72,5.8C9.31,10.07,9.58,16.05,6.37,19.58a16,16,0,0,0,10,5.05Z"/><path class="cls-2" d="M19.24,27V31.1a5.6,5.6,0,0,0,3.21.92,6.25,6.25,0,0,0,3.32-.92V26.16"/><path class="cls-3" d="M32.07,14.25c-.08-.59-.19-1.25-.24-1.63,0,0-3.35,1-8.61-1a15.43,15.43,0,0,1-7.49-5.42,15.37,15.37,0,0,0-3.45,8A2.38,2.38,0,0,0,12.54,19l.24,0c1.35,4.55,5,7.83,9.4,7.83s8.05-3.27,9.4-7.82h.09a2.39,2.39,0,0,0,.4-4.74Z"/><path class="cls-4" d="M32.07,14.25c-.08-.59-.19-1.25-.24-1.63,0,0-3.35,1-8.61-1a15.43,15.43,0,0,1-7.49-5.42,15.37,15.37,0,0,0-3.45,8A2.38,2.38,0,0,0,12.54,19l.24,0c1.35,4.55,5,7.83,9.4,7.83s8.05-3.27,9.4-7.82h.09a2.39,2.39,0,0,0,.4-4.74Z"/><g id="グループ化_310" data-name="グループ化 310"><path id="パス_2614" data-name="パス 2614" class="cls-5" d="M35.41,38.94l9.28,9.44L54,38.94A5.75,5.75,0,0,0,54.13,31c-2.91-2.91-5.9-2.13-8,0l-1.34,1.41L43.35,31c-2.2-2.2-5.19-2.91-8-.08A5.77,5.77,0,0,0,35.41,38.94Z"/><path id="パス_2615" data-name="パス 2615" class="cls-6" d="M35.41,38.94l9.28,9.44L54,38.94A5.75,5.75,0,0,0,54.13,31c-2.91-2.91-5.9-2.13-8,0l-1.34,1.41L43.35,31c-2.2-2.2-5.19-2.91-8-.08A5.77,5.77,0,0,0,35.41,38.94Zm1.34-7.23c1.89-2,3.93-1.19,5.81.7l2.2,2.13,2.2-2.2c1.9-2,3.94-2.68,5.83-.72A4.48,4.48,0,0,1,53,37.94l-.21.21-8,8-8-7.94a4.47,4.47,0,0,1-.21-6.32Z"/></g></g></g></svg>