<svg xmlns="http://www.w3.org/2000/svg" viewBox="0 0 54.64 48.83"><defs><style>.cls-1{fill:#dfe618;}.cls-2{fill:none;}.cls-2,.cls-3{stroke:#1e364b;stroke-linecap:round;stroke-linejoin:round;stroke-width:1.5px;}.cls-3{fill:#fff;}.cls-4{fill:#ebeef1;}.cls-5{fill:#1e364b;}.cls-6{fill:#f57789;}</style></defs><title>アセット 8</title><g id="レイヤー_2" data-name="レイヤー 2"><g id="_-Selecteditem" data-name="-Selecteditem"><g id="グループ化_279" data-name="グループ化 279"><path id="パス_2598" data-name="パス 2598" class="cls-1" d="M19.32,28.61v4.2a6,6,0,0,0,3.18.89,6.21,6.21,0,0,0,3.31-.89v-5"/><path id="パス_2600" data-name="パス 2600" class="cls-1" d="M19.32,32.81s-8,.13-12.59,4.71-6,7.63-6,7.63,44.27-.38,43.89,0c0,0-1.27-2.93-5.73-7.51s-12.72-4.83-12.72-4.83"/><g id="グループ化_278" data-name="グループ化 278"><g id="グループ化_277" data-name="グループ化 277"><path id="パス_2601" data-name="パス 2601" class="cls-1" d="M32.17,15.89c-.13-.64-.13-1.27-.25-1.65L13.47,11.56a12.86,12.86,0,0,0-1.14,4.2,2.48,2.48,0,0,0-2.17,2.42,2.42,2.42,0,0,0,2.42,2.42h.25c1.4,4.58,5.09,7.88,9.42,7.88s8-3.3,9.41-7.88h.13a2.42,2.42,0,0,0,2.42-2.42h0A2.33,2.33,0,0,0,32.17,15.89Z"/></g></g><path id="パス_2602" data-name="パス 2602" class="cls-1" d="M19.32,28v4.85a6,6,0,0,0,3.18.89,6.21,6.21,0,0,0,3.31-.89v-5"/><path id="パス_2604" data-name="パス 2604" class="cls-1" d="M40.06,38c5.72-2.92-1.78-17.81-3.56-26.2C34.46,2,26.32-.65,22.38,1.39,18.43-.65,10.29,2,8.26,11.82,6.47,20.21-1,35.1,4.69,38"/><path id="パス_2598-2" data-name="パス 2598" class="cls-2" d="M19.32,28.61v4.2a6,6,0,0,0,3.18.89,6.21,6.21,0,0,0,3.31-.89v-5"/><path id="パス_2600-2" data-name="パス 2600" class="cls-2" d="M19.32,32.81s-8,.13-12.59,4.71-6,7.63-6,7.63,44.27-.38,43.89,0c0,0-1.27-2.93-5.73-7.51s-12.72-4.83-12.72-4.83"/><g id="グループ化_278-2" data-name="グループ化 278"><g id="グループ化_277-2" data-name="グループ化 277"><path id="パス_2601-2" data-name="パス 2601" class="cls-3" d="M32.17,15.89c-.13-.64-.13-1.27-.25-1.65L13.47,11.56a12.86,12.86,0,0,0-1.14,4.2,2.48,2.48,0,0,0-2.17,2.42,2.42,2.42,0,0,0,2.42,2.42h.25c1.4,4.58,5.09,7.88,9.42,7.88s8-3.3,9.41-7.88h.13a2.42,2.42,0,0,0,2.42-2.42h0A2.33,2.33,0,0,0,32.17,15.89Z"/></g></g><path id="パス_2602-2" data-name="パス 2602" class="cls-3" d="M19.32,28v4.85a6,6,0,0,0,3.18.89,6.21,6.21,0,0,0,3.31-.89v-5"/><path id="パス_2604-2" data-name="パス 2604" class="cls-2" d="M40.06,38c5.72-2.92-1.78-17.81-3.56-26.2C34.46,2,26.32-.65,22.38,1.39,18.43-.65,10.29,2,8.26,11.82,6.47,20.21-1,35.1,4.69,38"/><path id="パス_2598-3" data-name="パス 2598" class="cls-2" d="M19.32,28.61v4.2a6,6,0,0,0,3.18.89,6.21,6.21,0,0,0,3.31-.89v-5"/><path id="パス_2600-3" data-name="パス 2600" class="cls-2" d="M19.32,32.81s-8,.13-12.59,4.71-6,7.63-6,7.63,44.27-.38,43.89,0c0,0-1.27-2.93-5.73-7.51s-12.72-4.83-12.72-4.83"/><g id="グループ化_278-3" data-name="グループ化 278"><g id="グループ化_277-3" data-name="グループ化 277"><path id="パス_2601-3" data-name="パス 2601" class="cls-2" d="M32.17,15.89c-.13-.64-.13-1.27-.25-1.65L13.47,11.56a12.86,12.86,0,0,0-1.14,4.2,2.48,2.48,0,0,0-2.17,2.42,2.42,2.42,0,0,0,2.42,2.42h.25c1.4,4.58,5.09,7.88,9.42,7.88s8-3.3,9.41-7.88h.13a2.42,2.42,0,0,0,2.42-2.42h0A2.33,2.33,0,0,0,32.17,15.89Z"/></g></g><path id="パス_2602-3" data-name="パス 2602" class="cls-2" d="M19.32,28v4.85a6,6,0,0,0,3.18.89,6.21,6.21,0,0,0,3.31-.89v-5"/><path id="パス_2604-3" data-name="パス 2604" class="cls-2" d="M40.06,38c5.72-2.92-1.78-17.81-3.56-26.2C34.46,2,26.32-.65,22.38,1.39,18.43-.65,10.29,2,8.26,11.82,6.47,20.21-1,35.1,4.69,38"/></g><g id="グループ化_303" data-name="グループ化 303"><path id="パス_2614" data-name="パス 2614" class="cls-4" d="M34.41,39.36l9.28,9.43L53,39.36a5.76,5.76,0,0,0,.15-7.95c-2.9-2.9-5.9-2.12-8,0l-1.33,1.42-1.42-1.42c-2.2-2.2-5.19-2.9-8-.07A5.77,5.77,0,0,0,34.41,39.36Z"/><path id="パス_2615" data-name="パス 2615" class="cls-5" d="M34.41,39.36l9.28,9.43L53,39.36a5.76,5.76,0,0,0,.15-7.95c-2.9-2.9-5.9-2.12-8,0l-1.33,1.42-1.42-1.42c-2.2-2.2-5.19-2.9-8-.07A5.77,5.77,0,0,0,34.41,39.36Zm1.34-7.24c1.88-2,3.93-1.18,5.81.71L43.76,35l2.2-2.2c1.9-2,3.94-2.67,5.83-.71A4.48,4.48,0,0,1,52,38.36l-.21.21-8,8-8-7.94a4.46,4.46,0,0,1-.21-6.32Z"/></g><g id="グループ化_310" data-name="グループ化 310"><path id="パス_2614-2" data-name="パス 2614" class="cls-6" d="M34.41,39.4l9.28,9.43L53,39.4a5.74,5.74,0,0,0,.16-7.94c-2.91-2.91-5.9-2.13-8,0l-1.34,1.41-1.41-1.41c-2.2-2.2-5.19-2.91-8-.08A5.77,5.77,0,0,0,34.41,39.4Z"/><path id="パス_2615-2" data-name="パス 2615" class="cls-5" d="M34.41,39.36l9.28,9.43L53,39.36a5.76,5.76,0,0,0,.15-7.95c-2.9-2.9-5.9-2.12-8,0l-1.33,1.42-1.42-1.42c-2.2-2.2-5.19-2.9-8-.07A5.77,5.77,0,0,0,34.41,39.36Zm1.34-7.24c1.89-2,3.93-1.18,5.81.71L43.76,35l2.2-2.2c1.9-2,3.94-2.67,5.83-.71A4.47,4.47,0,0,1,52,38.36l-.21.21-8,8-8-7.94a4.47,4.47,0,0,1-.21-6.32Z"/></g></g></g></svg>