<svg xmlns="http://www.w3.org/2000/svg" viewBox="0 0 55.64 48.31"><defs><style>.cls-1{fill:none;stroke:#1e364b;stroke-linecap:round;stroke-linejoin:round;stroke-width:1.5px;}.cls-2{fill:#ebeef1;}.cls-3{fill:#1e364b;}</style></defs><title>アセット 2</title><g id="レイヤー_2" data-name="レイヤー 2"><g id="_-hover" data-name="-hover"><g id="グループ化_271" data-name="グループ化 271"><path id="パス_2587" data-name="パス 2587" class="cls-1" d="M19.26,27.05v4.18a6,6,0,0,0,3.16.89,6.15,6.15,0,0,0,3.3-.89V26.29"/><path id="パス_2589" data-name="パス 2589" class="cls-1" d="M19.25,31.23s-8.36-1.14-12.92,3.3A20,20,0,0,0,.75,43.4s44.11-.38,43.73,0a20,20,0,0,0-5.58-8.87C34.34,30.09,26,31.23,26,31.23"/><g id="グループ化_270" data-name="グループ化 270"><g id="グループ化_269" data-name="グループ化 269"><path id="パス_2590" data-name="パス 2590" class="cls-1" d="M32.06,14.37c-.13-.63-.13-1.27-.26-1.65,0,0-3.3,1-8.62-1a15.61,15.61,0,0,1-7.47-5.45,15.32,15.32,0,0,0-3.43,8,2.48,2.48,0,0,0-2.15,2.41,2.41,2.41,0,0,0,2.41,2.41h.25c1.39,4.56,5.07,7.86,9.38,7.86s8-3.3,9.38-7.86h.13a2.41,2.41,0,0,0,2.4-2.41h0A2.32,2.32,0,0,0,32.06,14.37Z"/></g></g><path id="パス_2591" data-name="パス 2591" class="cls-1" d="M19.26,27.05v4.18a6,6,0,0,0,3.16.89,6.15,6.15,0,0,0,3.3-.89V26.29"/><path id="パス_2592" data-name="パス 2592" class="cls-1" d="M16.34,24.76A15.66,15.66,0,0,1,6.45,19.7c3.17-3.55,2.92-9.51,5.33-13.82,2.15-3.8,6.59-5.83,10.39-4.81C26.1-.08,30.41,2,32.56,5.88,35,10.19,34.72,16.15,37.89,19.7A16,16,0,0,1,28,24.77"/></g><g id="グループ化_304" data-name="グループ化 304"><path id="パス_2614-2" data-name="パス 2614-2" class="cls-2" d="M35.41,38.88l9.28,9.43L54,38.88a5.76,5.76,0,0,0,.16-8c-2.91-2.9-5.9-2.12-8,0l-1.34,1.42-1.42-1.42c-2.2-2.2-5.19-2.9-8-.07A5.77,5.77,0,0,0,35.41,38.88Z"/><path id="パス_2615-2" data-name="パス 2615-2" class="cls-3" d="M35.41,38.88l9.28,9.43L54,38.88a5.76,5.76,0,0,0,.16-8c-2.91-2.9-5.9-2.12-8,0l-1.34,1.42-1.42-1.42c-2.2-2.2-5.19-2.9-8-.07A5.77,5.77,0,0,0,35.41,38.88Zm1.34-7.24c1.89-2,3.93-1.18,5.81.71l2.2,2.12,2.2-2.2c1.9-2,3.94-2.67,5.83-.71A4.47,4.47,0,0,1,53,37.88l-.21.21-8,8-8-7.94a4.47,4.47,0,0,1-.21-6.32Z"/></g></g></g></svg>