<svg xmlns="http://www.w3.org/2000/svg" viewBox="0 0 56.47 49.74"><defs><style>.cls-1,.cls-3{fill:#fff;}.cls-1,.cls-2,.cls-4{stroke:#1e364b;stroke-linecap:round;stroke-linejoin:round;stroke-width:1.5px;}.cls-2{fill:#dfe618;}.cls-4{fill:none;}.cls-5{fill:#f57789;}.cls-6{fill:#1e364b;}</style></defs><title>アセット 7</title><g id="レイヤー_2" data-name="レイヤー 2"><g id="_-Selecteditem" data-name="-Selecteditem"><path class="cls-1" d="M20.27,27.64V32a5.93,5.93,0,0,0,3.39,1,6.58,6.58,0,0,0,3.5-1V26.8"/><path class="cls-2" d="M20.27,32s-8.84-1.27-13.63,3.53A22,22,0,0,0,.75,45s46.6-.34,46.27,0a22.09,22.09,0,0,0-5.89-9.42C36.33,30.75,27.5,32,27.5,32"/><path class="cls-1" d="M20.27,27.64V32a5.93,5.93,0,0,0,3.39,1,6.58,6.58,0,0,0,3.5-1V26.8"/><path class="cls-3" d="M33.9,14.23c0-.59,0-1.23,0-1.5L13.75,10.28a8.61,8.61,0,0,0-.87,3.93,2.52,2.52,0,0,0,.32,5,1.9,1.9,0,0,0,.25,0c1.42,4.81,5.33,8.27,9.93,8.27S31.87,24,33.3,19.22h.09a2.53,2.53,0,0,0,.51-5Z"/><path class="cls-4" d="M33.9,14.23c0-.59,0-1.23,0-1.5L13.75,10.28a8.61,8.61,0,0,0-.87,3.93,2.52,2.52,0,0,0,.32,5,1.9,1.9,0,0,0,.25,0c1.42,4.81,5.33,8.27,9.93,8.27S31.87,24,33.3,19.22h.09a2.53,2.53,0,0,0,.51-5Z"/><path class="cls-2" d="M35.1,12.89C36,6.16,31.42,1.7,25.18.88s-11.82,2.3-12.7,9"/><line class="cls-4" x1="7.5" y1="9.25" x2="33.96" y2="12.74"/><g id="グループ化_310" data-name="グループ化 310"><path id="パス_2614" data-name="パス 2614" class="cls-5" d="M36.24,40.3l9.27,9.44,9.28-9.44A5.74,5.74,0,0,0,55,32.36c-2.91-2.91-5.9-2.13-8,0l-1.34,1.41-1.41-1.41c-2.2-2.2-5.19-2.91-8-.08A5.76,5.76,0,0,0,36.24,40.3Z"/><path id="パス_2615" data-name="パス 2615" class="cls-6" d="M36.24,40.3l9.27,9.44,9.28-9.44A5.74,5.74,0,0,0,55,32.36c-2.91-2.91-5.9-2.13-8,0l-1.34,1.41-1.41-1.41c-2.2-2.2-5.19-2.91-8-.08A5.76,5.76,0,0,0,36.24,40.3Zm1.33-7.23c1.89-2,3.93-1.19,5.82.7l2.2,2.13,2.2-2.2c1.89-2,3.94-2.68,5.82-.72a4.46,4.46,0,0,1,.21,6.32l-.21.21-8,8-8-7.94a4.48,4.48,0,0,1-.21-6.32Z"/></g></g></g></svg>