<svg xmlns="http://www.w3.org/2000/svg" viewBox="0 0 56.64 48.32"><defs><style>.cls-1{fill:none;stroke:#1e364b;stroke-linecap:round;stroke-linejoin:round;stroke-width:1.5px;}.cls-2{fill:#ebeef1;}.cls-3{fill:#1e364b;}</style></defs><title>アセット 1</title><g id="レイヤー_2" data-name="レイヤー 2"><g id="_-hover" data-name="-hover"><g id="グループ化_104" data-name="グループ化 104"><path id="パス_92" data-name="パス 92" class="cls-1" d="M20.44,30.15s-8.9-1.22-13.76,3.5A21.28,21.28,0,0,0,.75,43.09s46.93-.4,46.52,0a21.28,21.28,0,0,0-5.93-9.44c-4.85-4.72-13.75-3.5-13.75-3.5"/><g id="グループ化_103" data-name="グループ化 103"><g id="グループ化_102" data-name="グループ化 102"><path id="パス_93" data-name="パス 93" class="cls-1" d="M34.19,12.21C33.79,5.87,29.2.75,23.67.75s-10.11,5-10.52,11.33a2.72,2.72,0,0,0-2.29,2.56,2.56,2.56,0,0,0,2.56,2.56h.28c1.48,4.85,5.39,8.36,10,8.36s8.5-3.51,10-8.36h.14a2.56,2.56,0,0,0,2.56-2.56h0A2.88,2.88,0,0,0,34.19,12.21Z"/></g></g><path id="パス_94" data-name="パス 94" class="cls-1" d="M16.8,3.72a16.66,16.66,0,0,0,8,5.8c5.53,2,9.17,1.08,9.17,1.08"/><path id="パス_95" data-name="パス 95" class="cls-1" d="M20.44,25.7v4.45a6.35,6.35,0,0,0,3.37.94,6.53,6.53,0,0,0,3.5-.94V24.89"/></g><g id="グループ化_310" data-name="グループ化 310"><path id="パス_2614-8" data-name="パス 2614-8" class="cls-2" d="M36.41,38.88l9.28,9.44L55,38.88a5.74,5.74,0,0,0,.16-7.94c-2.91-2.91-5.9-2.13-8,0l-1.34,1.41-1.42-1.41c-2.2-2.2-5.19-2.91-8-.08A5.77,5.77,0,0,0,36.41,38.88Z"/><path id="パス_2615-8" data-name="パス 2615-8" class="cls-3" d="M36.41,38.88l9.28,9.44L55,38.88a5.74,5.74,0,0,0,.16-7.94c-2.91-2.91-5.9-2.13-8,0l-1.34,1.41-1.42-1.41c-2.2-2.2-5.19-2.91-8-.08A5.77,5.77,0,0,0,36.41,38.88Zm1.34-7.23c1.89-2,3.93-1.19,5.81.7l2.2,2.13,2.2-2.2c1.9-2,3.94-2.68,5.83-.72A4.47,4.47,0,0,1,54,37.88l-.21.21-8,8-8-7.94a4.47,4.47,0,0,1-.21-6.32Z"/></g></g></g></svg>