<svg xmlns="http://www.w3.org/2000/svg" width="40" height="40" viewBox="0 0 40 40"><defs><style>.a{fill:#fdc93c;}.b{fill:none;stroke:#fff;stroke-linecap:round;stroke-linejoin:round;stroke-width:2px;}</style></defs><circle class="a" cx="20" cy="20" r="20"/><g transform="translate(8 8)"><ellipse class="b" cx="12" cy="12" rx="12" ry="12" transform="translate(0 0)"/><g transform="translate(7.596 10.902)"><path class="b" d="M548.982,43.209a.549.549,0,1,1-.55.549.549.549,0,0,1,.55-.549" transform="translate(-548.432 -43.209)"/><path class="b" d="M555.744,43.209a.549.549,0,1,1-.55.549.549.549,0,0,1,.55-.549" transform="translate(-546.878 -43.209)"/></g></g><path class="b" d="M7.76.066A4.083,4.083,0,0,1,3.891,2.85,4.081,4.081,0,0,1,0,0" transform="translate(24.161 26.543) rotate(180)"/></svg>