<svg xmlns="http://www.w3.org/2000/svg" width="152" height="158" viewBox="0 0 152 158"><defs><style>.a{fill:#fff;}.a,.b{stroke:#000;stroke-width:2px;}.b,.c,.f{fill:none;}.c{stroke:#f0efef;}.d{fill:#1fc4f5;}.e{stroke:none;}</style></defs><g transform="translate(-263 -334.821)"><g class="a" transform="translate(326 426.821)"><rect class="e" width="21" height="31"/><rect class="f" x="1" y="1" width="19" height="29"/></g><g class="a" transform="translate(301 452.821)"><rect class="e" width="71" height="13" rx="5"/><rect class="f" x="1" y="1" width="69" height="11" rx="4"/></g><g class="a" transform="translate(263 334.821)"><rect class="e" width="147" height="105" rx="5"/><rect class="f" x="1" y="1" width="145" height="103" rx="4"/></g><g class="a" transform="translate(270 341.821)"><rect class="e" width="133" height="90" rx="5"/><rect class="f" x="1" y="1" width="131" height="88" rx="4"/></g></g><g class="a" transform="translate(127 118)"><rect class="e" width="25" height="40" rx="12"/><rect class="f" x="1" y="1" width="23" height="38" rx="11"/></g><line class="b" x2="24" transform="translate(127.5 132.5)"/><line class="b" y1="14" transform="translate(139.5 118.5)"/><g transform="translate(-277 -340)"><g class="b" transform="translate(295 357)"><rect class="e" width="95" height="71" rx="2"/><rect class="f" x="1" y="1" width="93" height="69" rx="1"/></g><g transform="translate(297.713 373.5)"><path class="b" d="M1,0H94.616" transform="translate(-2.9 -2)"/><path class="c" d="M1,0H89.787" transform="translate(-1 11.768)"/><path class="c" d="M1,0H89.787" transform="translate(-1 23.536)"/><path class="c" d="M1,0H89.787" transform="translate(-1 35.304)"/><path class="c" d="M1,0H89.787" transform="translate(-1 47.073)"/></g><g class="a" transform="translate(378 361)"><circle class="e" cx="4" cy="4" r="4"/><circle class="f" cx="4" cy="4" r="3"/></g><g class="a" transform="translate(368 361)"><circle class="e" cx="4" cy="4" r="4"/><circle class="f" cx="4" cy="4" r="3"/></g><g class="a" transform="translate(358 361)"><circle class="e" cx="4" cy="4" r="4"/><circle class="f" cx="4" cy="4" r="3"/></g></g><g transform="translate(-282 -356)"><rect class="d" width="26.622" height="11.406" transform="translate(411.996 408.509) rotate(90)"/><path class="d" d="M15.208,0,30.415,17.109H0Z" transform="translate(421.5 447.027) rotate(180)"/></g></svg>