<svg xmlns="http://www.w3.org/2000/svg" xmlns:xlink="http://www.w3.org/1999/xlink" width="250.458" height="205.231" viewBox="0 0 250.458 205.231"><defs><style>.a,.b,.g,.m{fill:none;}.a,.d{stroke:#222;}.a,.b,.c,.d,.i,.j{stroke-width:2px;}.b,.c{stroke:#000;}.b,.i,.j{stroke-linecap:round;stroke-linejoin:round;}.c,.i,.j{fill:#fff;}.d,.k{fill:#1fc4f5;}.e{fill:#e0f4fa;}.f{clip-path:url(#a);}.g{stroke:#f0efef;}.h{fill:#dcd9d7;}.i,.j{stroke:#070303;}.i{opacity:0.43;}.l{stroke:none;}.n{filter:url(#b);}</style><clipPath id="a"><path class="a" d="M1314.979-4646v-65H1361v-96H1257v161Z" transform="translate(-1150 5033)"/></clipPath><filter id="b" x="48.984" y="53.429" width="96.688" height="81.028" filterUnits="userSpaceOnUse"><feOffset input="SourceAlpha"/><feGaussianBlur stdDeviation="5" result="c"/><feFlood flood-opacity="0.161"/><feComposite operator="in" in2="c"/><feComposite in="SourceGraphic"/></filter></defs><g transform="translate(-75 -1228)"><g transform="translate(77 426)"><g transform="translate(10.5 601.877)"><g transform="translate(128.5 268.123)"><path class="b" d="M158.5,287.123h-30" transform="translate(-104.5 -155.585)"/><path class="b" d="M136.231,288.873a1.481,1.481,0,0,1,1.481,1.481h0a1.481,1.481,0,0,1-1.481,1.481h0a1.481,1.481,0,0,1-1.481-1.481h0a1.481,1.481,0,0,1,1.481-1.481" transform="translate(-87.731 -284.969)"/><path class="b" d="M128.5,279.969a11.847,11.847,0,0,1,11.846-11.846h53.308A11.847,11.847,0,0,1,205.5,279.969V392.508a11.843,11.843,0,0,1-11.846,11.846H140.346A11.843,11.843,0,0,1,128.5,392.508Z" transform="translate(-128.5 -268.123)"/></g></g><g class="c" transform="translate(145 880)"><rect class="l" width="65" height="118"/><rect class="m" x="1" y="1" width="63" height="116"/></g></g><g class="d" transform="translate(222 1398)"><rect class="l" width="65" height="26"/><rect class="m" x="1" y="1" width="63" height="24"/></g><rect class="e" width="55" height="16" rx="2" transform="translate(227 1403)"/><g class="f" transform="translate(-32 1002)"><g transform="translate(-5.5 -28.123)"><g transform="translate(128.5 268.123)"><path class="b" d="M158.5,287.123h-30" transform="translate(-104.5 -155.585)"/><path class="b" d="M136.231,288.873a1.481,1.481,0,0,1,1.481,1.481h0a1.481,1.481,0,0,1-1.481,1.481h0a1.481,1.481,0,0,1-1.481-1.481h0a1.481,1.481,0,0,1,1.481-1.481" transform="translate(-87.731 -284.969)"/><path class="b" d="M128.5,279.969a11.847,11.847,0,0,1,11.846-11.846h53.308A11.847,11.847,0,0,1,205.5,279.969V392.508a11.843,11.843,0,0,1-11.846,11.846H140.346A11.843,11.843,0,0,1,128.5,392.508Z" transform="translate(-128.5 -268.123)"/></g></g><g class="c" transform="translate(129 250)"><rect class="l" width="65" height="118"/><rect class="m" x="1" y="1" width="63" height="116"/></g></g><g transform="translate(-48 1007.773)"><path class="g" d="M1,0H61" transform="translate(146.6 262.5)"/><path class="g" d="M1,0H61" transform="translate(146.6 282.5)"/><path class="g" d="M1,0H61" transform="translate(146.6 302.5)"/><path class="g" d="M1,0H61" transform="translate(146.6 322.5)"/><path class="g" d="M1,0H61" transform="translate(146.6 342.5)"/></g><g transform="translate(-457.171 909.49)"><rect class="h" width="8.031" height="52.24" transform="translate(597.414 405.264)"/><path class="i" d="M617.289,400.38c-4.336,1.652-5.929,4.921-4.835,7.784a5.512,5.512,0,0,0,2.567,2.891,5.488,5.488,0,0,0,3.675,7.209,5.511,5.511,0,0,0,2.3,7.959l-19.359,7.384a5.161,5.161,0,0,0,3.678,9.645l31.592-12.05L630.7,442.209a5.165,5.165,0,0,0,9.005,5.062l10.055-17.852s7.192-9.253,4.928-15.189l-4.659-12.216s-3.042-8.3-11.971-8.148C638.055,393.866,623.871,397.868,617.289,400.38Z" transform="translate(2.785 14.449)"/><g class="n" transform="matrix(1, 0, 0, 1, 532.17, 318.51)"><path class="j" d="M640.1,389.156c-4.095-2.185-7.6-1.242-9.05,1.462a5.506,5.506,0,0,0-.492,3.837,5.484,5.484,0,0,0-3.025,7.5,5.514,5.514,0,0,0-4.494,6.961l-18.279-9.752a5.16,5.16,0,1,0-4.859,9.1l29.83,15.918-12.381,2.546a5.164,5.164,0,0,0,2.1,10.113l20.064-4.136s11.7-.65,14.693-6.259l6.156-11.531s4.263-7.746-1.714-14.38C658.651,400.542,646.318,392.473,640.1,389.156Z" transform="translate(-532.17 -318.51)"/></g></g><rect class="k" width="23.112" height="9.902" transform="translate(307.304 1419.594) rotate(-90)"/><path class="k" d="M13.2,0l13.2,14.853H0Z" transform="translate(299.052 1386.105)"/></g></svg>