<svg xmlns="http://www.w3.org/2000/svg" xmlns:xlink="http://www.w3.org/1999/xlink" width="248" height="210.199" viewBox="0 0 248 210.199"><defs><style>.a,.c,.h,.k{fill:none;}.a{stroke:#222;}.a,.c,.d,.e,.i{stroke-width:2px;}.b{clip-path:url(#a);}.c,.d{stroke:#000;}.c,.e,.h,.i{stroke-linecap:round;stroke-linejoin:round;}.d,.e,.i{fill:#fff;}.e,.i{stroke:#070303;}.e{opacity:0.229;}.f{fill:#1fc4f5;}.g{fill:#fdc93c;}.h{stroke:#fff;stroke-width:3px;}.j{stroke:none;}.l{filter:url(#e);}.m{filter:url(#c);}</style><clipPath id="a"><path class="a" d="M1303.622-4676.21l-14.853-21.867,39.2-11.14h14.853V-4807H1257v132.854Z" transform="translate(-1257 4807)"/></clipPath><filter id="c" x="34.179" y="64.147" width="106.406" height="112.052" filterUnits="userSpaceOnUse"><feOffset input="SourceAlpha"/><feGaussianBlur stdDeviation="5" result="d"/><feFlood flood-opacity="0.161"/><feComposite operator="in" in2="d"/><feComposite in="SourceGraphic"/></filter><filter id="e" x="119.179" y="98.147" width="106.406" height="112.052" filterUnits="userSpaceOnUse"><feOffset input="SourceAlpha"/><feGaussianBlur stdDeviation="5" result="f"/><feFlood flood-opacity="0.161"/><feComposite operator="in" in2="f"/><feComposite in="SourceGraphic"/></filter></defs><g transform="translate(-64 -577)"><g class="b" transform="translate(81.601 591.563)"><g transform="translate(13.203 11.552)"><path class="c" d="M153.255,287.123H128.5" transform="translate(-108.696 -178.581)"/><path class="c" d="M135.972,288.873a1.222,1.222,0,0,1,1.222,1.222h0a1.222,1.222,0,0,1-1.222,1.222h0a1.222,1.222,0,0,1-1.222-1.222h0a1.222,1.222,0,0,1,1.222-1.222" transform="translate(-95.951 -285.652)"/><path class="c" d="M128.5,277.9a9.776,9.776,0,0,1,9.775-9.775h43.988a9.776,9.776,0,0,1,9.775,9.775v92.864a9.772,9.772,0,0,1-9.775,9.775H138.275a9.772,9.772,0,0,1-9.775-9.775Z" transform="translate(-128.5 -268.123)"/></g><g class="d" transform="translate(18.154 19.804)"><rect class="j" width="53.636" height="97.371"/><rect class="k" x="1" y="1" width="51.636" height="95.371"/></g></g><g class="b" transform="translate(199.601 624.563)"><g transform="translate(13.203 11.552)"><path class="c" d="M153.255,287.123H128.5" transform="translate(-108.696 -178.581)"/><path class="c" d="M135.972,288.873a1.222,1.222,0,0,1,1.222,1.222h0a1.222,1.222,0,0,1-1.222,1.222h0a1.222,1.222,0,0,1-1.222-1.222h0a1.222,1.222,0,0,1,1.222-1.222" transform="translate(-95.951 -285.652)"/><path class="c" d="M128.5,277.9a9.776,9.776,0,0,1,9.775-9.775h43.988a9.776,9.776,0,0,1,9.775,9.775v92.864a9.772,9.772,0,0,1-9.775,9.775H138.275a9.772,9.772,0,0,1-9.775-9.775Z" transform="translate(-128.5 -268.123)"/></g><g class="d" transform="translate(18.154 19.804)"><rect class="j" width="53.636" height="97.371"/><rect class="k" x="1" y="1" width="51.636" height="95.371"/></g></g><path class="e" d="M42.285,1.193c-4.033-2.152-7.49-1.223-8.913,1.44a5.423,5.423,0,0,0-.485,3.779A5.4,5.4,0,0,0,29.907,13.8a5.431,5.431,0,0,0-4.426,6.856l-18-9.6a5.082,5.082,0,1,0-4.785,8.967L32.073,35.7,19.879,38.2a5.086,5.086,0,0,0,2.064,9.961L41.7,44.091s11.526-.641,14.472-6.165L62.239,26.57s4.2-7.629-1.688-14.163C60.552,12.407,48.4,4.46,42.285,1.193Z" transform="translate(141.514 657.53) rotate(60)"/><rect class="f" width="38.112" height="9.902" transform="translate(143.51 667.898)"/><path class="f" d="M13.2,0l13.2,14.853H0Z" transform="translate(193 659.647) rotate(90)"/><circle class="f" cx="31.5" cy="31.5" r="31.5" transform="translate(64 577)"/><circle class="g" cx="31.5" cy="31.5" r="31.5" transform="translate(249 601)"/><g transform="translate(78.451 591.5)"><ellipse class="h" cx="17" cy="17" rx="17" ry="17" transform="translate(0 0)"/><path class="h" d="M560.1,47.327a5.78,5.78,0,0,1-10.99-.094" transform="translate(-537.6 -24.78)"/><g transform="translate(10.333 15.444)"><path class="h" d="M549.211,43.209a.778.778,0,1,1-.779.777.778.778,0,0,1,.779-.777" transform="translate(-548.432 -43.209)"/><path class="h" d="M555.973,43.209a.778.778,0,1,1-.779.777.778.778,0,0,1,.779-.777" transform="translate(-543.416 -43.209)"/></g></g><g transform="translate(263.451 613.5)"><ellipse class="h" cx="17" cy="17" rx="17" ry="17" transform="translate(0 0)"/><path class="h" d="M560.1,47.327a5.78,5.78,0,0,1-10.99-.094" transform="translate(571.6 73.721) rotate(180)"/><g transform="translate(10.333 15.444)"><path class="h" d="M549.211,43.209a.778.778,0,1,1-.779.777.778.778,0,0,1,.779-.777" transform="translate(-548.432 -43.209)"/><path class="h" d="M555.973,43.209a.778.778,0,1,1-.779.777.778.778,0,0,1,.779-.777" transform="translate(-543.416 -43.209)"/></g></g><path class="f" d="M10,0,20,17H0Z" transform="matrix(-0.891, 0.454, -0.454, -0.891, 122.223, 642.425)"/><path class="g" d="M10,0,20,17H0Z" transform="matrix(-0.848, -0.53, 0.53, -0.848, 271.43, 674.899)"/><g class="m" transform="matrix(1, 0, 0, 1, 64, 577)"><path class="i" d="M42.285,1.193c-4.033-2.152-7.49-1.223-8.913,1.44a5.423,5.423,0,0,0-.485,3.779A5.4,5.4,0,0,0,29.907,13.8a5.431,5.431,0,0,0-4.426,6.856l-18-9.6a5.082,5.082,0,1,0-4.785,8.967L32.073,35.7,19.879,38.2a5.086,5.086,0,0,0,2.064,9.961L41.7,44.091s11.526-.641,14.472-6.165L62.239,26.57s4.2-7.629-1.688-14.163C60.552,12.407,48.4,4.46,42.285,1.193Z" transform="translate(92.37 80.53) rotate(60)"/></g><path class="e" d="M42.285,1.193c-4.033-2.152-7.49-1.223-8.913,1.44a5.423,5.423,0,0,0-.485,3.779A5.4,5.4,0,0,0,29.907,13.8a5.431,5.431,0,0,0-4.426,6.856l-18-9.6a5.082,5.082,0,1,0-4.785,8.967L32.073,35.7,19.879,38.2a5.086,5.086,0,0,0,2.064,9.961L41.7,44.091s11.526-.641,14.472-6.165L62.239,26.57s4.2-7.629-1.688-14.163C60.552,12.407,48.4,4.46,42.285,1.193Z" transform="translate(260.514 691.53) rotate(60)"/><path class="g" d="M0,0H25.2V9.9H0Z" transform="translate(225.088 711.801) rotate(180)"/><path class="g" d="M13.2,0l13.2,14.853H0Z" transform="translate(187.51 720.053) rotate(-90)"/><g class="l" transform="matrix(1, 0, 0, 1, 64, 577)"><path class="i" d="M42.285,1.193c-4.033-2.152-7.49-1.223-8.913,1.44a5.423,5.423,0,0,0-.485,3.779A5.4,5.4,0,0,0,29.907,13.8a5.431,5.431,0,0,0-4.426,6.856l-18-9.6a5.082,5.082,0,1,0-4.785,8.967L32.073,35.7,19.879,38.2a5.086,5.086,0,0,0,2.064,9.961L41.7,44.091s11.526-.641,14.472-6.165L62.239,26.57s4.2-7.629-1.688-14.163C60.552,12.407,48.4,4.46,42.285,1.193Z" transform="translate(177.37 114.53) rotate(60)"/></g></g></svg>