<svg xmlns="http://www.w3.org/2000/svg" xmlns:xlink="http://www.w3.org/1999/xlink" width="248" height="168" viewBox="0 0 248 168"><defs><style>.a,.d,.e,.f,.g,.i{fill:#fff;}.a{stroke:#707070;}.b{clip-path:url(#a);}.c{fill:#c7c7c7;}.d,.g,.i{stroke:#070303;}.f{font-size:14px;font-family:HiraKakuProN-W6, Hiragino Kaku Gothic ProN;}.g,.i{stroke-linecap:round;stroke-linejoin:round;stroke-width:2px;}.g{opacity:0.229;}.h{fill:#1fc4f5;}.j{fill:#fdc93c;}.k,.m{stroke:none;}.l{fill:none;}.m{fill:#070303;}.n{filter:url(#d);}.o{filter:url(#b);}</style><clipPath id="a"><rect class="a" width="248" height="168" transform="translate(40 858.384)"/></clipPath><filter id="b" x="135.228" y="4.698" width="94.669" height="99.415" filterUnits="userSpaceOnUse"><feOffset input="SourceAlpha"/><feGaussianBlur stdDeviation="5" result="c"/><feFlood flood-opacity="0.161"/><feComposite operator="in" in2="c"/><feComposite in="SourceGraphic"/></filter><filter id="d" x="30.329" y="84.562" width="94.669" height="99.415" filterUnits="userSpaceOnUse"><feOffset input="SourceAlpha"/><feGaussianBlur stdDeviation="5" result="e"/><feFlood flood-opacity="0.161"/><feComposite operator="in" in2="e"/><feComposite in="SourceGraphic"/></filter></defs><g class="b" transform="translate(-40 -858.384)"><rect class="c" width="193" height="51" transform="translate(90 871.384)"/><rect class="c" width="193" height="52" transform="translate(44 945.384)"/><g class="d" transform="translate(160 871.384)"><rect class="k" width="193" height="51"/><rect class="l" x="0.5" y="0.5" width="192" height="50"/></g><g class="e" transform="translate(-32 945.384)"><path class="k" d="M 192.5 51.5 L 0.5 51.5 L 0.5 0.5 L 192.5 0.5 L 192.5 51.5 Z"/><path class="m" d="M 1 1 L 1 51 L 192 51 L 192 1 L 1 1 M 0 0 L 193 0 L 193 52 L 0 52 L 0 0 Z"/></g><text class="f" transform="translate(100 902.384)"><tspan x="0" y="0">元に戻す</tspan></text><text class="f" transform="translate(171 976.384)"><tspan x="0" y="0">元に戻す</tspan></text><g transform="translate(179.122 879.462)"><path class="g" d="M35.548,1c-3.391-1.809-6.3-1.029-7.493,1.211a4.559,4.559,0,0,0-.407,3.177,4.541,4.541,0,0,0-2.5,6.211,4.565,4.565,0,0,0-3.721,5.764L6.287,9.291a4.272,4.272,0,1,0-4.023,7.539l24.7,13.18L16.712,32.118a4.276,4.276,0,0,0,1.735,8.374L35.06,37.067s9.69-.538,12.166-5.182l5.1-9.547s3.53-6.413-1.419-11.906C50.9,10.43,40.693,3.749,35.548,1Z" transform="translate(35.144 0) rotate(60)"/><rect class="h" width="32.04" height="8.324" transform="translate(36.823 8.717)"/><path class="h" d="M11.1,0,22.2,12.487H0Z" transform="translate(78.427 1.78) rotate(90)"/><g class="o" transform="matrix(1, 0, 0, 1, -139.12, -21.08)"><path class="i" d="M35.548,1c-3.391-1.809-6.3-1.029-7.493,1.211a4.559,4.559,0,0,0-.407,3.177,4.541,4.541,0,0,0-2.5,6.211,4.565,4.565,0,0,0-3.721,5.764L6.287,9.291a4.272,4.272,0,1,0-4.023,7.539l24.7,13.18L16.712,32.118a4.276,4.276,0,0,0,1.735,8.374L35.06,37.067s9.69-.538,12.166-5.182l5.1-9.547s3.53-6.413-1.419-11.906C50.9,10.43,40.693,3.749,35.548,1Z" transform="translate(186.75 21.08) rotate(60)"/></g></g><g transform="translate(76.578 959.327)"><path class="g" d="M35.548,1c-3.391-1.809-6.3-1.029-7.493,1.211a4.559,4.559,0,0,0-.407,3.177,4.541,4.541,0,0,0-2.5,6.211,4.565,4.565,0,0,0-3.721,5.764L6.287,9.291a4.272,4.272,0,1,0-4.023,7.539l24.7,13.18L16.712,32.118a4.276,4.276,0,0,0,1.735,8.374L35.06,37.067s9.69-.538,12.166-5.182l5.1-9.547s3.53-6.413-1.419-11.906C50.9,10.43,40.693,3.749,35.548,1Z" transform="translate(61.372 0) rotate(60)"/><path class="j" d="M0,0H21.185V8.324H0Z" transform="translate(31.591 17.042) rotate(180)"/><path class="j" d="M11.1,0,22.2,12.487H0Z" transform="translate(0 23.979) rotate(-90)"/><g class="n" transform="matrix(1, 0, 0, 1, -36.58, -100.94)"><path class="i" d="M35.548,1c-3.391-1.809-6.3-1.029-7.493,1.211a4.559,4.559,0,0,0-.407,3.177,4.541,4.541,0,0,0-2.5,6.211,4.565,4.565,0,0,0-3.721,5.764L6.287,9.291a4.272,4.272,0,1,0-4.023,7.539l24.7,13.18L16.712,32.118a4.276,4.276,0,0,0,1.735,8.374L35.06,37.067s9.69-.538,12.166-5.182l5.1-9.547s3.53-6.413-1.419-11.906C50.9,10.43,40.693,3.749,35.548,1Z" transform="translate(81.85 100.94) rotate(60)"/></g></g></g></svg>