<svg xmlns="http://www.w3.org/2000/svg" width="149.3" height="113" viewBox="0 0 149.3 113"><defs><style>.a{fill:#1fc4f5;}.b{fill:#fdc93c;}.c,.e{fill:none;}.c{stroke:#fff;stroke-linecap:round;stroke-linejoin:round;stroke-width:3px;}.d{fill:#a2a2a2;font-size:16px;font-family:HiraKakuProN-W3, Hiragino Kaku Gothic ProN;}.e{stroke:#a2a2a2;}</style></defs><g transform="translate(0.4)"><ellipse class="a" cx="27.803" cy="27.803" rx="27.803" ry="27.803" transform="translate(3.5 30)"/><ellipse class="b" cx="27.803" cy="27.803" rx="27.803" ry="27.803" transform="translate(77.5 30)"/><g transform="translate(-590.5 -319)"><g transform="translate(606.647 362)"><ellipse class="c" cx="15.005" cy="15.005" rx="15.005" ry="15.005" transform="translate(0 0)"/><path class="c" d="M558.806,47.316a5.1,5.1,0,0,1-9.7-.083" transform="translate(-538.95 -27.415)"/><g transform="translate(9.12 13.632)"><path class="c" d="M549.119,43.209a.686.686,0,1,1-.687.686.687.687,0,0,1,.687-.686" transform="translate(-548.432 -43.209)"/><path class="c" d="M555.881,43.209a.686.686,0,1,1-.687.686.687.687,0,0,1,.687-.686" transform="translate(-544.798 -43.209)"/></g></g></g><g transform="translate(-586.438 -319.217)"><g transform="translate(676.938 362.217)"><ellipse class="c" cx="15.005" cy="15.005" rx="15.005" ry="15.005" transform="translate(0 0)"/><path class="c" d="M9.7.083A5.1,5.1,0,0,1,4.864,3.562,5.1,5.1,0,0,1,0,0" transform="translate(19.855 23.38) rotate(180)"/><g transform="translate(9.12 13.632)"><path class="c" d="M549.119,43.209a.686.686,0,1,1-.687.686.687.687,0,0,1,.687-.686" transform="translate(-548.432 -43.209)"/><path class="c" d="M555.881,43.209a.686.686,0,1,1-.687.686.687.687,0,0,1,.687-.686" transform="translate(-544.798 -43.209)"/></g></g></g><text class="d" transform="translate(106.5 109)"><tspan x="-33.944" y="0">disagree</tspan></text><g transform="translate(-555.5 -364)"><text class="d" transform="translate(587 378)"><tspan x="-22.576" y="0">agree</tspan></text><line class="e" x1="9" y1="12" transform="translate(555.5 372.5)"/><line class="e" y1="12" x2="9" transform="translate(610.5 372.5)"/></g><g transform="translate(64.5 91.5)"><line class="e" x1="9" y2="12"/><path class="e" d="M20,0l9,12" transform="translate(55)"/></g></g></svg>