<svg id="illust-3" xmlns="http://www.w3.org/2000/svg" width="147" height="131" viewBox="0 0 147 131">
  <g id="グループ_1057" data-name="グループ 1057" transform="translate(-263 -334.821)">
    <g id="長方形_1627" data-name="長方形 1627" transform="translate(326 426.821)" fill="#fff" stroke="#000" stroke-width="2">
      <rect width="21" height="31" stroke="none"/>
      <rect x="1" y="1" width="19" height="29" fill="none"/>
    </g>
    <g id="長方形_1628" data-name="長方形 1628" transform="translate(301 452.821)" fill="#fff" stroke="#000" stroke-width="2">
      <rect width="71" height="13" rx="5" stroke="none"/>
      <rect x="1" y="1" width="69" height="11" rx="4" fill="none"/>
    </g>
    <g id="長方形_1626" data-name="長方形 1626" transform="translate(263 334.821)" fill="#fff" stroke="#000" stroke-width="2">
      <rect width="147" height="105" rx="5" stroke="none"/>
      <rect x="1" y="1" width="145" height="103" rx="4" fill="none"/>
    </g>
    <g id="長方形_1629" data-name="長方形 1629" transform="translate(270 341.821)" fill="#fff" stroke="#000" stroke-width="2">
      <rect width="133" height="90" rx="5" stroke="none"/>
      <rect x="1" y="1" width="131" height="88" rx="4" fill="none"/>
    </g>
  </g>
  <g id="グループ_1058" data-name="グループ 1058" transform="translate(-277 -340)">
    <g id="長方形_1632" data-name="長方形 1632" transform="translate(295 357)" fill="none" stroke="#000" stroke-width="2">
      <rect width="95" height="71" rx="2" stroke="none"/>
      <rect x="1" y="1" width="93" height="69" rx="1" fill="none"/>
    </g>
    <g id="グループ_1051" data-name="グループ 1051" transform="translate(297.713 373.5)">
      <path id="パス_16" data-name="パス 16" d="M1,0H94.616" transform="translate(-2.9 -2)" fill="none" stroke="#000" stroke-width="2"/>
      <path id="パス_17" data-name="パス 17" d="M1,0H89.787" transform="translate(-1 11.768)" fill="none" stroke="#f0efef" stroke-width="1"/>
      <path id="パス_18" data-name="パス 18" d="M1,0H89.787" transform="translate(-1 23.536)" fill="none" stroke="#f0efef" stroke-width="1"/>
      <path id="パス_19" data-name="パス 19" d="M1,0H89.787" transform="translate(-1 35.304)" fill="none" stroke="#f0efef" stroke-width="1"/>
      <path id="パス_20" data-name="パス 20" d="M1,0H89.787" transform="translate(-1 47.073)" fill="none" stroke="#f0efef" stroke-width="1"/>
    </g>
    <g id="楕円形_16" data-name="楕円形 16" transform="translate(378 361)" fill="#fff" stroke="#000" stroke-width="2">
      <circle cx="4" cy="4" r="4" stroke="none"/>
      <circle cx="4" cy="4" r="3" fill="none"/>
    </g>
    <g id="楕円形_17" data-name="楕円形 17" transform="translate(368 361)" fill="#fff" stroke="#000" stroke-width="2">
      <circle cx="4" cy="4" r="4" stroke="none"/>
      <circle cx="4" cy="4" r="3" fill="none"/>
    </g>
    <g id="楕円形_18" data-name="楕円形 18" transform="translate(358 361)" fill="#fff" stroke="#000" stroke-width="2">
      <circle cx="4" cy="4" r="4" stroke="none"/>
      <circle cx="4" cy="4" r="3" fill="none"/>
    </g>
  </g>
  <g id="長方形_1553" data-name="長方形 1553" transform="translate(18.295 64.965)" fill="#1fc4f5" stroke="#222" stroke-width="2">
    <rect width="94.705" height="22.949" stroke="none"/>
    <rect x="1" y="1" width="92.705" height="20.949" fill="none"/>
  </g>
  <rect id="長方形_1554" data-name="長方形 1554" width="85.878" height="14.122" rx="2" transform="translate(22.725 69.378)" fill="#e0f4fa"/>
  <g id="グループ_1059" data-name="グループ 1059" transform="translate(-865 -354)">
    <rect id="長方形_1556" data-name="長方形 1556" width="20.4" height="8.74" transform="translate(986.367 446.025) rotate(-90)" fill="#1fc4f5"/>
    <path id="多角形_5" data-name="多角形 5" d="M11.653,0,23.307,13.11H0Z" transform="translate(979.085 416.509)" fill="#1fc4f5"/>
  </g>
</svg>
