<svg xmlns="http://www.w3.org/2000/svg" xmlns:xlink="http://www.w3.org/1999/xlink" width="50" height="50" viewBox="0 0 50 50">
  <defs>
    <clipPath id="clip-path">
      <rect width="50" height="50" fill="none"/>
    </clipPath>
  </defs>
  <g id="icon-disagree" clip-path="url(#clip-path)">
    <g id="グループ_128" data-name="グループ 128" transform="translate(-861 -316)">
      <circle id="楕円形_15" data-name="楕円形 15" cx="25" cy="25" r="25" transform="translate(861 316)" fill="#fdf2d3"/>
      <g id="グループ_116" data-name="グループ 116" transform="translate(0.5 0.202)">
        <ellipse id="楕円形_10" data-name="楕円形 10" cx="15" cy="15" rx="15" ry="15" transform="translate(870.5 325.798)" fill="none" stroke="#fff" stroke-linecap="round" stroke-linejoin="round" stroke-width="3"/>
        <g id="グループ_103" data-name="グループ 103" transform="translate(879.995 339.425)">
          <path id="Shape_52" data-name="Shape 52" d="M549.119,43.209a.686.686,0,1,1-.687.686.687.687,0,0,1,.687-.686" transform="translate(-548.432 -43.209)" fill="none" stroke="#fff" stroke-linecap="round" stroke-linejoin="round" stroke-width="3"/>
          <path id="Shape_52-2" data-name="Shape 52" d="M555.881,43.209a.686.686,0,1,1-.687.686.687.687,0,0,1,.687-.686" transform="translate(-544.798 -43.209)" fill="none" stroke="#fff" stroke-linecap="round" stroke-linejoin="round" stroke-width="3"/>
        </g>
      </g>
    </g>
    <path id="Shape_53" data-name="Shape 53" d="M558.806,47.316a5.1,5.1,0,0,1-9.7-.083" transform="translate(579.306 80.412) rotate(180)" fill="none" stroke="#fff" stroke-linecap="round" stroke-linejoin="round" stroke-width="3"/>
  </g>
</svg>
