<svg xmlns="http://www.w3.org/2000/svg" width="21.381" height="27" viewBox="0 0 21.381 27"><defs><style>.a{fill:none;stroke:#ff003b;}</style></defs><g transform="translate(-54.832 0.5)"><path class="a" d="M74.821,3.542a9.733,9.733,0,0,1-2.2-.608,20.848,20.848,0,0,0-4.1-.777l-.138-.98A1.336,1.336,0,0,0,67.078,0H63.965a1.337,1.337,0,0,0-1.3,1.177l-.138.98a20.845,20.845,0,0,0-4.1.777,9.731,9.731,0,0,1-2.2.608,1.245,1.245,0,0,0-.891,1.212V5.6h20.38V4.754A1.245,1.245,0,0,0,74.821,3.542Z"/><path class="a" d="M64.254,154.137a2.632,2.632,0,0,0,2.622,2.4H78.634a2.632,2.632,0,0,0,2.622-2.4l1.3-16.616H62.952ZM77.123,141.2a.774.774,0,0,1,1.545.093l-.736,12.162a.774.774,0,0,1-1.545-.093Zm-5.142.047a.774.774,0,1,1,1.548,0v12.162a.774.774,0,1,1-1.548,0Zm-4.414-.773a.774.774,0,0,1,.819.726l.737,12.162a.774.774,0,0,1-1.545.093l-.737-12.162A.774.774,0,0,1,67.567,140.471Z" transform="translate(-7.233 -130.538)"/></g></svg>