<svg xmlns="http://www.w3.org/2000/svg" width="19.683" height="28.049" viewBox="0 0 19.683 28.049"><defs><style>.a{fill:#c3a624;}.b{fill:#357c40;}.c{fill:#feffdd;}.d{fill:#56ac00;}</style></defs><g transform="translate(0 0.806)"><path class="a" d="M0,6.209V22.861l9.849,9.382V13.028l-7.786-7.4A1.923,1.923,0,0,0,.919,5C.242,5,0,5.758,0,6.209Z" transform="translate(0 -5)"/><path class="b" d="M70.849,6.209V22.861L61,32.243V13.028l7.786-7.4A1.923,1.923,0,0,1,69.93,5C70.608,5,70.849,5.758,70.849,6.209Z" transform="translate(-51.167 -5)"/></g><g transform="translate(0 0)"><path class="c" d="M0,1.225V17.877l9.849,9.382V8.028L2.063.629A1.923,1.923,0,0,0,.919,0C.242,0,0,.758,0,1.225Z" transform="translate(0 0)"/><path class="d" d="M70.849,1.225V17.877L61,27.259V8.028l7.786-7.4A1.923,1.923,0,0,1,69.93,0C70.608,0,70.849.758,70.849,1.225Z" transform="translate(-51.167 0)"/></g></svg>