<svg xmlns="http://www.w3.org/2000/svg" viewBox="0 0 39.36 56.1"><defs><style>.cls-1{fill:#c3a624;}.cls-2{fill:#357c40;}.cls-3{fill:#dfe618;}.cls-4{fill:#64c106;}</style></defs><title>グループ化 204</title><g id="レイヤー_2" data-name="レイヤー 2"><g id="_00-popup" data-name="00-popup"><g id="グループ化_204" data-name="グループ化 204"><g id="グループ化_168-2" data-name="グループ化 168-2"><path id="パス_2526-2" data-name="パス 2526-2" class="cls-1" d="M0,4v33.3L19.7,56.1V17.67L4.13,2.87A3.91,3.91,0,0,0,1.84,1.61C.48,1.61,0,3.13,0,4Z"/><path id="パス_2527-2" data-name="パス 2527-2" class="cls-2" d="M39.36,4v33.3L19.67,56.1V17.67L35.24,2.87a3.85,3.85,0,0,1,2.29-1.26C38.88,1.61,39.36,3.13,39.36,4Z"/></g><g id="グループ化_169-2" data-name="グループ化 169-2"><path id="パス_2528-2" data-name="パス 2528-2" class="cls-3" d="M0,2.45v33.3L19.7,54.52V16.06L4.13,1.26A3.86,3.86,0,0,0,1.84,0C.48,0,0,1.52,0,2.45Z"/><path id="パス_2529-2" data-name="パス 2529-2" class="cls-4" d="M39.36,2.45v33.3L19.67,54.52V16.06L35.24,1.26A3.8,3.8,0,0,1,37.53,0C38.88,0,39.36,1.52,39.36,2.45Z"/></g></g></g></g></svg>