<svg xmlns="http://www.w3.org/2000/svg" width="72.456" height="55.742" viewBox="0 0 72.456 55.742"><defs><style>.a{fill:#fff;}.b,.d{fill:none;}.b{stroke:#47c3cf;}.b,.c,.d{stroke-linecap:round;stroke-linejoin:round;stroke-miterlimit:10;stroke-width:1.5px;}.c{fill:#dfe618;}.c,.d{stroke:#1e364b;}.e{fill:#1e364b;}</style></defs><g transform="translate(-775.65 -349.525)"><g transform="translate(205 3)"><g transform="translate(571.42 347.275)"><g transform="translate(0 0)"><path class="a" d="M27.985.8H75.6a.771.771,0,0,1,.815.816V28.873a.771.771,0,0,1-.815.816H34.507L27.332,36.87V1.453C27.169,1.126,27.659.8,27.985.8Z" transform="translate(-27.3 -0.8)"/><path class="b" d="M27.985.8H75.6a.771.771,0,0,1,.815.816V28.873a.771.771,0,0,1-.815.816H34.507L27.332,36.87V1.453C27.169,1.126,27.659.8,27.985.8Z" transform="translate(-27.3 -0.8)"/><line class="b" x2="28.862" transform="translate(10.142 10.119)"/><line class="b" x1="28.862" transform="translate(10.142 18.77)"/></g><g transform="translate(0 0)"><path class="c" d="M27.985.8H75.6a.771.771,0,0,1,.815.816V28.873a.771.771,0,0,1-.815.816H34.507L27.332,36.87V1.453C27.169,1.126,27.659.8,27.985.8Z" transform="translate(-27.3 -0.8)"/><path class="c" d="M27.985.8H75.6a.771.771,0,0,1,.815.816V28.873a.771.771,0,0,1-.815.816H34.507L27.332,36.87V1.453C27.169,1.126,27.659.8,27.985.8Z" transform="translate(-27.3 -0.8)"/><path class="c" d="M27.985.8H75.6a.771.771,0,0,1,.815.816V28.873a.771.771,0,0,1-.815.816H34.507L27.332,36.87V1.453C27.169,1.126,27.659.8,27.985.8Z" transform="translate(-27.3 -0.8)"/><line class="d" x2="28.862" transform="translate(10.142 10.119)"/><line class="d" x1="28.862" transform="translate(10.142 18.77)"/></g></g><g transform="translate(594.184 353.145)"><g transform="translate(0 0)"><path class="a" d="M28.056,10.975,14.064,24.4h13.31Z" transform="translate(0.531 0.415)"/><path class="e" d="M35.707,2.219,33.313,4.613h0L4.189,33.737a.733.733,0,0,0-.2.6L0,49.1l14.761-3.99a.733.733,0,0,0,.6-.2L44.284,15.784l2.394-2.394a8.072,8.072,0,0,0,0-11.171A7.826,7.826,0,0,0,35.707,2.219ZM2.793,46.3,5.585,36.33l7.181,7.181Zm11.969-3.192L5.984,34.335,33.911,6.408l8.777,8.777ZM43.686,13.988,34.909,5.211l1.4-1.2,8.777,8.777Zm2.593-2.394L37.7,2.818a6.362,6.362,0,0,1,8.179.6A6.6,6.6,0,0,1,46.279,11.595Z" transform="translate(0 0.025)"/></g><path class="e" d="M1.2,23.593,0,28.181l7.181-1.995L1.995,21Z" transform="translate(0 20.94)"/></g></g></g></svg>