<svg xmlns="http://www.w3.org/2000/svg" width="112.933" height="124.909" viewBox="0 0 112.933 124.909"><defs><style>.a{fill:none;}.a,.d,.f,.g{stroke:#1e364b;stroke-miterlimit:10;}.a,.d,.f{stroke-linecap:round;stroke-linejoin:round;stroke-width:1.5px;}.b,.f,.g{fill:#fff;}.c{fill:#1e364b;}.d{fill:#dfe618;}.e{fill:#f57789;}</style></defs><g transform="translate(-422.25 -309.541)"><g transform="translate(423 332.996)"><path class="a" d="M20.108,22.534s-8.773-1.2-13.559,3.456A20.986,20.986,0,0,0,.7,35.3s46.259-.4,45.86,0a20.986,20.986,0,0,0-5.849-9.305c-4.785-4.653-13.559-3.456-13.559-3.456" transform="translate(-0.7 6.444)"/><g transform="translate(9.97 0)"><path class="a" d="M31.2,12C30.8,5.751,26.278.7,20.828.7S10.859,5.618,10.46,11.866A2.675,2.675,0,0,0,8.2,14.392a2.524,2.524,0,0,0,2.526,2.526h.266c1.462,4.785,5.317,8.242,9.837,8.242S29.2,21.7,30.665,16.917H30.8a2.524,2.524,0,0,0,2.526-2.526A2.846,2.846,0,0,0,31.2,12Z" transform="translate(-8.2 -0.7)"/></g><path class="a" d="M12.6,2.9a16.421,16.421,0,0,0,7.843,5.716c5.45,1.994,9.039,1.063,9.039,1.063" transform="translate(3.219 0.024)"/><path class="a" d="M15.3,19.4v4.387a6.241,6.241,0,0,0,3.323.931,6.443,6.443,0,0,0,3.456-.931V18.6" transform="translate(4.108 5.194)"/></g><g transform="translate(456.516 360.843)"><path class="b" d="M1.625,9.775l9.147,9.3,9.147-9.3a5.668,5.668,0,0,0,.155-7.829c-2.868-2.868-5.814-2.093-7.906,0l-1.318,1.4-1.4-1.4C7.283-.225,4.338-.922,1.547,1.868A5.688,5.688,0,0,0,1.625,9.775Z" transform="translate(0.014 -0.036)"/><path class="c" d="M1.625,9.775l9.147,9.3,9.147-9.3a5.668,5.668,0,0,0,.155-7.829c-2.868-2.868-5.814-2.093-7.906,0l-1.318,1.4-1.4-1.4C7.283-.225,4.338-.922,1.547,1.868A5.688,5.688,0,0,0,1.625,9.775ZM2.942,2.643c1.86-1.938,3.876-1.163,5.736.7l2.17,2.093,2.17-2.17c1.86-1.938,3.876-2.635,5.736-.7a4.406,4.406,0,0,1,0,6.434l-7.906,7.906L2.942,9.077A4.406,4.406,0,0,1,2.942,2.643Z" transform="translate(0.014 -0.036)"/></g><g transform="translate(478 363.736)"><path class="a" d="M15.3,20.99v4.344a6.18,6.18,0,0,0,3.291.921,6.38,6.38,0,0,0,3.423-.921V20.2" transform="translate(3.919 5.461)"/><path class="d" d="M19.919,24.133s-8.688-1.185-13.427,3.423A20.783,20.783,0,0,0,.7,36.77s45.811-.395,45.416,0a20.783,20.783,0,0,0-5.792-9.215C35.585,22.948,26.9,24.133,26.9,24.133" transform="translate(-0.7 6.662)"/><g transform="translate(9.873 9.469)"><path class="a" d="M30.974,11.718V10.27L11.228,7.9a7.79,7.79,0,0,0-.921,3.818,2.446,2.446,0,0,0-2.106,2.5,2.5,2.5,0,0,0,2.5,2.5h.263c1.448,4.739,5.266,8.162,9.741,8.162S29,21.459,30.447,16.72h.132a2.5,2.5,0,0,0,2.5-2.5A2.81,2.81,0,0,0,30.974,11.718Z" transform="translate(-8.2 -7.9)"/></g><path class="a" d="M15.3,20.99v4.344a6.18,6.18,0,0,0,3.291.921,6.38,6.38,0,0,0,3.423-.921V20.2" transform="translate(3.919 5.461)"/><path class="d" d="M31.747,12.677C32.669,6.1,28.193,1.619,22.006.83S10.421,3.067,9.5,9.649" transform="translate(2.084 -0.707)"/><line class="a" x2="25.933" y2="3.423" transform="translate(6.714 8.416)"/></g><g transform="translate(511.191 392.774)"><path class="e" d="M1.609,9.68l9.058,9.211L19.725,9.68a5.613,5.613,0,0,0,.154-7.753c-2.84-2.84-5.757-2.073-7.83,0l-1.3,1.382L9.362,1.927C7.212-.222,4.3-.913,1.532,1.851A5.633,5.633,0,0,0,1.609,9.68Z" transform="translate(0.014 -0.036)"/><path class="c" d="M1.609,9.68l9.058,9.211L19.725,9.68a5.613,5.613,0,0,0,.154-7.753c-2.84-2.84-5.757-2.073-7.83,0l-1.3,1.382L9.362,1.927C7.212-.222,4.3-.913,1.532,1.851A5.633,5.633,0,0,0,1.609,9.68Zm1.3-7.062C4.756.7,6.752,1.467,8.594,3.309l2.149,2.073,2.149-2.149c1.842-1.919,3.838-2.61,5.68-.691a4.363,4.363,0,0,1,0,6.371l-7.83,7.83L2.914,8.989A4.363,4.363,0,0,1,2.914,2.618Z" transform="translate(0.014 -0.036)"/></g><g transform="translate(476 310.305)"><path class="d" d="M17.892,24.718S10.12,23.659,5.881,27.78A18.59,18.59,0,0,0,.7,36.022s40.977-.353,40.624,0a18.59,18.59,0,0,0-5.181-8.243c-4.239-4.121-12.011-3.062-12.011-3.062" transform="translate(-0.7 3.6)"/><path class="f" d="M15.3,21.507v3.886a5.528,5.528,0,0,0,2.944.824,5.707,5.707,0,0,0,3.062-.824V20.8" transform="translate(1.892 2.926)"/><path class="d" d="M25.218,22.964a14.532,14.532,0,0,0,9.185-4.71c-2.944-3.3-2.708-8.831-4.946-12.835C27.455,1.886,23.334,0,19.8.944a8.525,8.525,0,0,0-9.656,4.475c-2.237,4-2,9.538-4.946,12.835a14.823,14.823,0,0,0,9.185,4.71Z" transform="translate(0.099 -0.651)"/><path class="f" d="M15.3,21.507v3.886a5.528,5.528,0,0,0,2.944.824,5.707,5.707,0,0,0,3.062-.824V20.8" transform="translate(1.892 2.926)"/><g transform="translate(8.714 12.657)"><path class="b" d="M10.337,11.4A2.236,2.236,0,0,0,8.1,13.637a2.137,2.137,0,0,0,2.237,2.12,2.236,2.236,0,0,0,2.237-2.237A2.072,2.072,0,0,0,10.337,11.4Zm17.78,0a2.236,2.236,0,0,0-2.237,2.237,2.165,2.165,0,0,0,2.237,2.237,2.236,2.236,0,0,0,2.237-2.237A2.165,2.165,0,0,0,28.118,11.4Z" transform="translate(-8.1 -11.4)"/></g><g transform="translate(8.714 5.121)"><path class="b" d="M28.471,12.536c-.118-.589-.118-1.178-.236-1.531,0,0-3.062.942-8.007-.942A14.546,14.546,0,0,1,13.281,5,14.182,14.182,0,0,0,10.1,12.418a2.287,2.287,0,0,0-2,2.237,2.236,2.236,0,0,0,2.237,2.237h.236c1.3,4.239,4.71,7.3,8.714,7.3S26.7,21.132,28,16.893h.118a2.236,2.236,0,0,0,2.237-2.237A2.156,2.156,0,0,0,28.471,12.536Z" transform="translate(-8.1 -5)"/><path class="a" d="M28.471,12.536c-.118-.589-.118-1.178-.236-1.531,0,0-3.062.942-8.007-.942A14.546,14.546,0,0,1,13.281,5,14.182,14.182,0,0,0,10.1,12.418a2.287,2.287,0,0,0-2,2.237,2.236,2.236,0,0,0,2.237,2.237h.236c1.3,4.239,4.71,7.3,8.714,7.3S26.7,21.132,28,16.893h.118a2.236,2.236,0,0,0,2.237-2.237A2.156,2.156,0,0,0,28.471,12.536Z" transform="translate(-8.1 -5)"/></g></g><g transform="translate(506.657 335.62)"><path class="e" d="M1.53,9.214l8.62,8.766,8.62-8.766a5.342,5.342,0,0,0,.146-7.378c-2.7-2.7-5.479-1.972-7.451,0L10.223,3.151,8.908,1.836C6.863-.21,4.087-.867,1.457,1.763A5.36,5.36,0,0,0,1.53,9.214Z" transform="translate(0.014 -0.036)"/><path class="c" d="M1.53,9.214l8.62,8.766,8.62-8.766a5.342,5.342,0,0,0,.146-7.378c-2.7-2.7-5.479-1.972-7.451,0L10.223,3.151,8.908,1.836C6.863-.21,4.087-.867,1.457,1.763A5.36,5.36,0,0,0,1.53,9.214ZM2.772,2.493C4.525.667,6.425,1.4,8.178,3.151l2.045,1.972,2.045-2.045c1.753-1.826,3.653-2.484,5.406-.657a4.152,4.152,0,0,1,0,6.063l-7.451,7.451L2.772,8.556A4.152,4.152,0,0,1,2.772,2.493Z" transform="translate(0.014 -0.036)"/></g><g transform="translate(511.891 402.267)"><path class="f" d="M36.449,74.548,29.6,62.87s-.088-2.019,2.371-.966c2.458.966,5.444,5.356,5.444,5.356V53.036c0-2.2.615-3.336,2.019-3.336s2.019,1.58,2.019,3.336.351,7.024.351,7.024,1.229-1.493,2.371-1.141a3.383,3.383,0,0,1,1.756,1.58,2.924,2.924,0,0,1,2.107-.615,3.9,3.9,0,0,1,1.756,1.493s.966-.878,2.107.351S49.97,74.548,49.97,74.548,36.624,74.724,36.449,74.548Z" transform="translate(-29.6 -49.7)"/><path class="d" d="M36,84.573V77.9H51.8v6.673S36.088,84.485,36,84.573Z" transform="translate(-30.38 -53.14)"/><rect class="g" width="1.844" height="1.844" transform="translate(7.288 26.253)"/></g></g></svg>