<svg xmlns="http://www.w3.org/2000/svg" width="16.841" height="24" viewBox="0 0 16.841 24"><defs><style>.a{fill:#c3a624;}.b{fill:#357c40;}.c{fill:#dfe618;}.d{fill:#fff;}</style></defs><g transform="translate(0 0)"><g transform="translate(0 0.69)"><path class="a" d="M0,6.034V20.283L8.428,28.31V11.869L1.766,5.538A1.645,1.645,0,0,0,.786,5C.207,5,0,5.648,0,6.034Z" transform="translate(0 -5)"/><path class="b" d="M69.428,6.034V20.283L61,28.31V11.869l6.662-6.331A1.645,1.645,0,0,1,68.641,5C69.221,5,69.428,5.648,69.428,6.034Z" transform="translate(-52.586 -5)"/></g><g transform="translate(0 0)"><path class="c" d="M0,1.048V15.3l8.428,8.028V6.869L1.766.538A1.645,1.645,0,0,0,.786,0C.207,0,0,.648,0,1.048Z" transform="translate(0 0)"/><path class="d" d="M69.428,1.048V15.3L61,23.324V6.869L67.662.538A1.645,1.645,0,0,1,68.641,0C69.221,0,69.428.648,69.428,1.048Z" transform="translate(-52.586 0)"/></g></g></svg>