<svg xmlns="http://www.w3.org/2000/svg" width="24.104" height="22.216" viewBox="0 0 24.104 22.216"><defs><style>.a{fill:#fff;}</style></defs><g transform="translate(0.03 0.021)"><path class="a" d="M20.967,3.379a11.091,11.091,0,0,0-7.551-3.4A1.348,1.348,0,1,0,13.3,2.673a8.42,8.42,0,1,1-8.77,8.413c0-.165,0-.325.014-.49l1.605.791a.6.6,0,0,0,.537,0,.462.462,0,0,0,.25-.419L6.778,3.92a.6.6,0,0,0-.927-.461L.159,7.625a.463.463,0,0,0-.184.452.585.585,0,0,0,.33.424l1.681.829a11.378,11.378,0,0,0-.141,1.756A11.115,11.115,0,1,0,20.967,3.379Z" transform="translate(0 0)"/></g></svg>